<mxfile host="app.diagrams.net" modified="2024-08-03T09:18:21.069Z" agent="Mozilla/5.0 (Macintosh; Intel Mac OS X 10_15_7) AppleWebKit/537.36 (KHTML, like Gecko) Chrome/126.0.0.0 Safari/537.36" etag="am88K6eVEDeeBUpgfVd3" version="21.6.9" type="github">
  <diagram name="第 1 页" id="mGX7JHn-emaisip8i1rK">
    <mxGraphModel dx="1434" dy="761" grid="1" gridSize="10" guides="1" tooltips="1" connect="1" arrows="1" fold="1" page="1" pageScale="1" pageWidth="827" pageHeight="1169" math="0" shadow="0">
      <root>
        <mxCell id="0" />
        <mxCell id="1" parent="0" />
        <mxCell id="50C9T-3_KakUq4iRH_eM-3" value="" style="edgeStyle=orthogonalEdgeStyle;rounded=0;orthogonalLoop=1;jettySize=auto;html=1;" edge="1" parent="1" source="50C9T-3_KakUq4iRH_eM-1" target="50C9T-3_KakUq4iRH_eM-2">
          <mxGeometry relative="1" as="geometry" />
        </mxCell>
        <mxCell id="50C9T-3_KakUq4iRH_eM-6" value="" style="edgeStyle=orthogonalEdgeStyle;rounded=0;orthogonalLoop=1;jettySize=auto;html=1;" edge="1" parent="1" source="50C9T-3_KakUq4iRH_eM-1" target="50C9T-3_KakUq4iRH_eM-5">
          <mxGeometry relative="1" as="geometry" />
        </mxCell>
        <mxCell id="50C9T-3_KakUq4iRH_eM-1" value="主控器&lt;br&gt;PlaybackManager" style="rounded=0;whiteSpace=wrap;html=1;" vertex="1" parent="1">
          <mxGeometry x="270" y="580" width="210" height="60" as="geometry" />
        </mxCell>
        <mxCell id="50C9T-3_KakUq4iRH_eM-2" value="字幕控制器&lt;br&gt;SubtitleManager" style="whiteSpace=wrap;html=1;rounded=0;" vertex="1" parent="1">
          <mxGeometry x="160" y="760" width="120" height="60" as="geometry" />
        </mxCell>
        <mxCell id="50C9T-3_KakUq4iRH_eM-12" value="" style="edgeStyle=orthogonalEdgeStyle;rounded=0;orthogonalLoop=1;jettySize=auto;html=1;" edge="1" parent="1" source="50C9T-3_KakUq4iRH_eM-5" target="50C9T-3_KakUq4iRH_eM-11">
          <mxGeometry relative="1" as="geometry" />
        </mxCell>
        <mxCell id="50C9T-3_KakUq4iRH_eM-14" value="" style="edgeStyle=orthogonalEdgeStyle;rounded=0;orthogonalLoop=1;jettySize=auto;html=1;" edge="1" parent="1" source="50C9T-3_KakUq4iRH_eM-5" target="50C9T-3_KakUq4iRH_eM-13">
          <mxGeometry relative="1" as="geometry" />
        </mxCell>
        <mxCell id="50C9T-3_KakUq4iRH_eM-5" value="场景控制器&lt;br&gt;ItemManager" style="whiteSpace=wrap;html=1;rounded=0;" vertex="1" parent="1">
          <mxGeometry x="470" y="760" width="120" height="60" as="geometry" />
        </mxCell>
        <mxCell id="50C9T-3_KakUq4iRH_eM-11" value="算法执行器&lt;br&gt;Algorithm" style="whiteSpace=wrap;html=1;rounded=0;" vertex="1" parent="1">
          <mxGeometry x="370" y="900" width="120" height="60" as="geometry" />
        </mxCell>
        <mxCell id="50C9T-3_KakUq4iRH_eM-13" value="UI 元素&lt;br&gt;Item" style="whiteSpace=wrap;html=1;rounded=0;" vertex="1" parent="1">
          <mxGeometry x="560" y="900" width="120" height="60" as="geometry" />
        </mxCell>
      </root>
    </mxGraphModel>
  </diagram>
</mxfile>
